<svg xmlns="http://www.w3.org/2000/svg" viewBox="0 0 512 512">
  <defs>
    <linearGradient id="bg" x1="0%" y1="0%" x2="100%" y2="100%">
      <stop offset="0%" stop-color="#a8761b"/>
      <stop offset="100%" stop-color="#7a5410"/>
    </linearGradient>
  </defs>
  <rect width="512" height="512" rx="112" fill="url(#bg)"/>
  
  <g transform="translate(128, 128) scale(10.666)">
    <path fill="none" stroke="#fff7df" stroke-width="1.5" stroke-linecap="round" stroke-linejoin="round" d="M11.562 3.266a.5.5 0 0 1 .876 0L15.39 8.87a1 1 0 0 0 1.516.294L21.183 5.5a.5.5 0 0 1 .798.519l-2.834 10.246a1 1 0 0 1-.956.734H5.81a1 1 0 0 1-.957-.734L2.02 6.02a.5.5 0 0 1 .798-.518l4.276 3.664a1 1 0 0 0 1.516-.294z"/>
    <path fill="none" stroke="#fff7df" stroke-width="1.5" stroke-linecap="round" stroke-linejoin="round" d="M5 21h14"/>
  </g>
</svg>